<svg id="sprite-d" xmlns="http://www.w3.org/2000/svg" style="display:none" aria-hidden="true">
  <!-- Set D: Arcane Rune  angular geometric sigils -->
  <symbol id="sd-class-war" viewBox="0 0 24 24" fill="none" stroke="currentColor" stroke-width="1.6" stroke-linecap="square" stroke-linejoin="miter">
    <path d="M12 3 20 9v6l-8 6-8-6V9l8-6z"/><path d="M12 7v10M9 10h6"/>
  </symbol>
  <symbol id="sd-class-pal" viewBox="0 0 24 24" fill="none" stroke="currentColor" stroke-width="1.6" stroke-linecap="square" stroke-linejoin="miter">
    <path d="M12 3 20 9v6l-8 6-8-6V9l8-6z"/><path d="M12 7v10M9 10h6"/>
    <path d="M12 7 9 10h6L12 7z" fill="currentColor" stroke="none" opacity="0.35"/>
  </symbol>
  <symbol id="sd-class-shd" viewBox="0 0 24 24" fill="none" stroke="currentColor" stroke-width="1.6" stroke-linecap="square" stroke-linejoin="miter">
    <path d="M12 3 20 9v6l-8 6-8-6V9l8-6z"/>
    <path d="M9 11h6M10 14h4M12 8v2"/>
  </symbol>
  <symbol id="sd-class-mnk" viewBox="0 0 24 24" fill="none" stroke="currentColor" stroke-width="1.6" stroke-linecap="square" stroke-linejoin="miter">
    <rect x="5" y="5" width="14" height="14" rx="1"/>
    <path d="M8 16V8h3v5h2V8h3v8"/>
  </symbol>
  <symbol id="sd-class-rog" viewBox="0 0 24 24" fill="none" stroke="currentColor" stroke-width="1.6" stroke-linecap="square" stroke-linejoin="miter">
    <rect x="5" y="5" width="14" height="14" rx="1"/>
    <path d="M8 16 16 8M16 16 8 8"/>
  </symbol>
  <symbol id="sd-class-brd" viewBox="0 0 24 24" fill="none" stroke="currentColor" stroke-width="1.6" stroke-linecap="square" stroke-linejoin="miter">
    <rect x="5" y="5" width="14" height="14" rx="1"/>
    <path d="M9 15V9l6-1v7"/><circle cx="8" cy="15" r="1.2" fill="currentColor" stroke="none"/><circle cx="16" cy="14" r="1.2" fill="currentColor" stroke="none"/>
  </symbol>
  <symbol id="sd-class-rng" viewBox="0 0 24 24" fill="none" stroke="currentColor" stroke-width="1.6" stroke-linecap="square" stroke-linejoin="miter">
    <rect x="5" y="5" width="14" height="14" rx="1"/>
    <path d="M7 7l8 8M15 7 7 15"/><circle cx="12" cy="12" r="1.2" fill="currentColor" stroke="none"/>
  </symbol>
  <symbol id="sd-class-bst" viewBox="0 0 24 24" fill="none" stroke="currentColor" stroke-width="1.6" stroke-linecap="square" stroke-linejoin="miter">
    <rect x="5" y="5" width="14" height="14" rx="1"/>
    <path d="M9 14 12 8l3 6M10 11h4"/>
  </symbol>
  <symbol id="sd-class-ber" viewBox="0 0 24 24" fill="none" stroke="currentColor" stroke-width="1.6" stroke-linecap="square" stroke-linejoin="miter">
    <rect x="5" y="5" width="14" height="14" rx="1"/>
    <path d="M8 16l8-8M10 8h6v6"/>
  </symbol>
  <symbol id="sd-class-enc" viewBox="0 0 24 24" fill="none" stroke="currentColor" stroke-width="1.6" stroke-linecap="square" stroke-linejoin="miter">
    <path d="M12 4 19 8.5v7L12 20 5 15.5v-7L12 4z"/>
    <path d="M12 8a3 3 0 0 1 3 3 5 5 0 1 1-6 0 3 3 0 0 1 3-3z"/>
    <circle cx="12" cy="11.5" r="1" fill="currentColor" stroke="none"/>
  </symbol>
  <symbol id="sd-class-wiz" viewBox="0 0 24 24" fill="none" stroke="currentColor" stroke-width="1.6" stroke-linecap="square" stroke-linejoin="miter">
    <path d="M12 4 19 8.5v7L12 20 5 15.5v-7L12 4z"/>
    <path d="m12 7-1.5 4.5H7l3.8 2.8-1.5 4.5L12 15l2.7 2.8-1.5-4.5L17 11.5h-3.5L12 7z"/>
  </symbol>
  <symbol id="sd-class-mag" viewBox="0 0 24 24" fill="none" stroke="currentColor" stroke-width="1.6" stroke-linecap="square" stroke-linejoin="miter">
    <path d="M12 4 19 8.5v7L12 20 5 15.5v-7L12 4z"/>
    <path d="M12 8c1 1.8 2.2 3 3.5 3.8a2.5 2.5 0 1 1-5 0C11.8 11 12 9.8 12 8z"/>
  </symbol>
  <symbol id="sd-class-nec" viewBox="0 0 24 24" fill="none" stroke="currentColor" stroke-width="1.6" stroke-linecap="square" stroke-linejoin="miter">
    <path d="M12 4 19 8.5v7L12 20 5 15.5v-7L12 4z"/>
    <path d="M9.5 12h5M10 15h4M12 8v2"/>
    <circle cx="10" cy="11.5" r=".8" fill="currentColor" stroke="none"/><circle cx="14" cy="11.5" r=".8" fill="currentColor" stroke="none"/>
  </symbol>
  <symbol id="sd-class-clr" viewBox="0 0 24 24" fill="none" stroke="currentColor" stroke-width="1.6" stroke-linecap="square" stroke-linejoin="miter">
    <path d="M12 4 19 8.5v7L12 20 5 15.5v-7L12 4z"/>
    <path d="M12 8v8M9 11h6"/>
  </symbol>
  <symbol id="sd-class-shm" viewBox="0 0 24 24" fill="none" stroke="currentColor" stroke-width="1.6" stroke-linecap="square" stroke-linejoin="miter">
    <path d="M12 4 19 8.5v7L12 20 5 15.5v-7L12 4z"/>
    <path d="M12 7v10M9 9h6M8 12h8M9 15h6"/>
  </symbol>
  <symbol id="sd-class-dru" viewBox="0 0 24 24" fill="none" stroke="currentColor" stroke-width="1.6" stroke-linecap="square" stroke-linejoin="miter">
    <path d="M12 4 19 8.5v7L12 20 5 15.5v-7L12 4z"/>
    <path d="M11 15.5A4.5 4.5 0 0 1 10.2 9c2.8-.6 3.6-.9 4.5-2 .4.8.8 2 .8 3.5a4.8 4.8 0 0 1-9.6 0c0-.4.1-.7.1-1 1 .6 2 1 3 1z"/>
  </symbol>
  <symbol id="sd-class-unknown" viewBox="0 0 24 24" fill="none" stroke="currentColor" stroke-width="1.6" stroke-linecap="square" stroke-linejoin="miter">
    <path d="M12 4 19 8.5v7L12 20 5 15.5v-7L12 4z"/>
    <circle cx="12" cy="10" r="2"/><path d="M9 16c.6-1.5 1.5-2.5 3-2.5s2.4 1 3 2.5"/>
  </symbol>
</svg>
